<?xml version="1.0" encoding="UTF-8" standalone="no"?>
<!DOCTYPE svg PUBLIC "-//W3C//DTD SVG 1.1//EN"
 "http://www.w3.org/Graphics/SVG/1.1/DTD/svg11.dtd">
<!-- Generated by graphviz version 2.50.0 (0)
 -->
<!-- Title: G Pages: 1 -->
<svg width="2831pt" height="104pt"
 viewBox="0.00 0.00 2123.00 78.00" xmlns="http://www.w3.org/2000/svg" xmlns:xlink="http://www.w3.org/1999/xlink">
<g id="graph0" class="graph" transform="scale(1.33 1.33) rotate(0) translate(4 74)">
<title>G</title>
<polygon fill="white" stroke="transparent" points="-4,4 -4,-74 2119,-74 2119,4 -4,4"/>
<!-- 1610506955168 -->
<g id="node1" class="node">
<title>1610506955168</title>
<polygon fill="none" stroke="black" points="0,-0.5 0,-69.5 268,-69.5 268,-0.5 0,-0.5"/>
<text text-anchor="middle" x="70.5" y="-54.3" font-family="Times New Roman,serif" font-size="14.00">conv2d_input</text>
<polyline fill="none" stroke="black" points="141,-46.5 141,-69.5 "/>
<text text-anchor="middle" x="204.5" y="-54.3" font-family="Times New Roman,serif" font-size="14.00">InputLayer</text>
<polyline fill="none" stroke="black" points="0,-46.5 268,-46.5 "/>
<text text-anchor="middle" x="65" y="-31.3" font-family="Times New Roman,serif" font-size="14.00">input:</text>
<polyline fill="none" stroke="black" points="130,-23.5 130,-46.5 "/>
<text text-anchor="middle" x="199" y="-31.3" font-family="Times New Roman,serif" font-size="14.00">output:</text>
<polyline fill="none" stroke="black" points="0,-23.5 268,-23.5 "/>
<text text-anchor="middle" x="67" y="-8.3" font-family="Times New Roman,serif" font-size="14.00">[(None, 224, 224, 3)]</text>
<polyline fill="none" stroke="black" points="134,-0.5 134,-23.5 "/>
<text text-anchor="middle" x="201" y="-8.3" font-family="Times New Roman,serif" font-size="14.00">[(None, 224, 224, 3)]</text>
</g>
<!-- 1610506955120 -->
<g id="node2" class="node">
<title>1610506955120</title>
<polygon fill="none" stroke="black" points="304,-0.5 304,-69.5 560,-69.5 560,-0.5 304,-0.5"/>
<text text-anchor="middle" x="366.5" y="-54.3" font-family="Times New Roman,serif" font-size="14.00">conv2d</text>
<polyline fill="none" stroke="black" points="429,-46.5 429,-69.5 "/>
<text text-anchor="middle" x="494.5" y="-54.3" font-family="Times New Roman,serif" font-size="14.00">Conv2D</text>
<polyline fill="none" stroke="black" points="304,-46.5 560,-46.5 "/>
<text text-anchor="middle" x="366" y="-31.3" font-family="Times New Roman,serif" font-size="14.00">input:</text>
<polyline fill="none" stroke="black" points="428,-23.5 428,-46.5 "/>
<text text-anchor="middle" x="494" y="-31.3" font-family="Times New Roman,serif" font-size="14.00">output:</text>
<polyline fill="none" stroke="black" points="304,-23.5 560,-23.5 "/>
<text text-anchor="middle" x="366.5" y="-8.3" font-family="Times New Roman,serif" font-size="14.00">(None, 224, 224, 3)</text>
<polyline fill="none" stroke="black" points="429,-0.5 429,-23.5 "/>
<text text-anchor="middle" x="494.5" y="-8.3" font-family="Times New Roman,serif" font-size="14.00">(None, 222, 222, 32)</text>
</g>
<!-- 1610506955168&#45;&gt;1610506955120 -->
<g id="edge1" class="edge">
<title>1610506955168&#45;&gt;1610506955120</title>
<path fill="none" stroke="black" d="M268.18,-35C268.18,-35 293.94,-35 293.94,-35"/>
<polygon fill="black" stroke="black" points="293.94,-38.5 303.94,-35 293.94,-31.5 293.94,-38.5"/>
</g>
<!-- 1610506954976 -->
<g id="node3" class="node">
<title>1610506954976</title>
<polygon fill="none" stroke="black" points="596,-0.5 596,-69.5 858,-69.5 858,-0.5 596,-0.5"/>
<text text-anchor="middle" x="661.5" y="-54.3" font-family="Times New Roman,serif" font-size="14.00">max_pooling2d</text>
<polyline fill="none" stroke="black" points="727,-46.5 727,-69.5 "/>
<text text-anchor="middle" x="792.5" y="-54.3" font-family="Times New Roman,serif" font-size="14.00">MaxPooling2D</text>
<polyline fill="none" stroke="black" points="596,-46.5 858,-46.5 "/>
<text text-anchor="middle" x="659.5" y="-31.3" font-family="Times New Roman,serif" font-size="14.00">input:</text>
<polyline fill="none" stroke="black" points="723,-23.5 723,-46.5 "/>
<text text-anchor="middle" x="790.5" y="-31.3" font-family="Times New Roman,serif" font-size="14.00">output:</text>
<polyline fill="none" stroke="black" points="596,-23.5 858,-23.5 "/>
<text text-anchor="middle" x="661.5" y="-8.3" font-family="Times New Roman,serif" font-size="14.00">(None, 222, 222, 32)</text>
<polyline fill="none" stroke="black" points="727,-0.5 727,-23.5 "/>
<text text-anchor="middle" x="792.5" y="-8.3" font-family="Times New Roman,serif" font-size="14.00">(None, 111, 111, 32)</text>
</g>
<!-- 1610506955120&#45;&gt;1610506954976 -->
<g id="edge2" class="edge">
<title>1610506955120&#45;&gt;1610506954976</title>
<path fill="none" stroke="black" d="M560.1,-35C560.1,-35 585.75,-35 585.75,-35"/>
<polygon fill="black" stroke="black" points="585.75,-38.5 595.75,-35 585.75,-31.5 585.75,-38.5"/>
</g>
<!-- 1610235728272 -->
<g id="node4" class="node">
<title>1610235728272</title>
<polygon fill="none" stroke="black" points="894,-0.5 894,-69.5 1156,-69.5 1156,-0.5 894,-0.5"/>
<text text-anchor="middle" x="961.5" y="-54.3" font-family="Times New Roman,serif" font-size="14.00">conv2d_1</text>
<polyline fill="none" stroke="black" points="1029,-46.5 1029,-69.5 "/>
<text text-anchor="middle" x="1092.5" y="-54.3" font-family="Times New Roman,serif" font-size="14.00">Conv2D</text>
<polyline fill="none" stroke="black" points="894,-46.5 1156,-46.5 "/>
<text text-anchor="middle" x="957.5" y="-31.3" font-family="Times New Roman,serif" font-size="14.00">input:</text>
<polyline fill="none" stroke="black" points="1021,-23.5 1021,-46.5 "/>
<text text-anchor="middle" x="1088.5" y="-31.3" font-family="Times New Roman,serif" font-size="14.00">output:</text>
<polyline fill="none" stroke="black" points="894,-23.5 1156,-23.5 "/>
<text text-anchor="middle" x="959.5" y="-8.3" font-family="Times New Roman,serif" font-size="14.00">(None, 111, 111, 32)</text>
<polyline fill="none" stroke="black" points="1025,-0.5 1025,-23.5 "/>
<text text-anchor="middle" x="1090.5" y="-8.3" font-family="Times New Roman,serif" font-size="14.00">(None, 109, 109, 64)</text>
</g>
<!-- 1610506954976&#45;&gt;1610235728272 -->
<g id="edge3" class="edge">
<title>1610506954976&#45;&gt;1610235728272</title>
<path fill="none" stroke="black" d="M858.14,-35C858.14,-35 883.9,-35 883.9,-35"/>
<polygon fill="black" stroke="black" points="883.9,-38.5 893.9,-35 883.9,-31.5 883.9,-38.5"/>
</g>
<!-- 1610506955024 -->
<g id="node5" class="node">
<title>1610506955024</title>
<polygon fill="none" stroke="black" points="1192,-0.5 1192,-69.5 1441,-69.5 1441,-0.5 1192,-0.5"/>
<text text-anchor="middle" x="1258" y="-54.3" font-family="Times New Roman,serif" font-size="14.00">max_pooling2d_1</text>
<polyline fill="none" stroke="black" points="1324,-46.5 1324,-69.5 "/>
<text text-anchor="middle" x="1382.5" y="-54.3" font-family="Times New Roman,serif" font-size="14.00">MaxPooling2D</text>
<polyline fill="none" stroke="black" points="1192,-46.5 1441,-46.5 "/>
<text text-anchor="middle" x="1252.5" y="-31.3" font-family="Times New Roman,serif" font-size="14.00">input:</text>
<polyline fill="none" stroke="black" points="1313,-23.5 1313,-46.5 "/>
<text text-anchor="middle" x="1377" y="-31.3" font-family="Times New Roman,serif" font-size="14.00">output:</text>
<polyline fill="none" stroke="black" points="1192,-23.5 1441,-23.5 "/>
<text text-anchor="middle" x="1257.5" y="-8.3" font-family="Times New Roman,serif" font-size="14.00">(None, 109, 109, 64)</text>
<polyline fill="none" stroke="black" points="1323,-0.5 1323,-23.5 "/>
<text text-anchor="middle" x="1382" y="-8.3" font-family="Times New Roman,serif" font-size="14.00">(None, 54, 54, 64)</text>
</g>
<!-- 1610235728272&#45;&gt;1610506955024 -->
<g id="edge4" class="edge">
<title>1610235728272&#45;&gt;1610506955024</title>
<path fill="none" stroke="black" d="M1156.25,-35C1156.25,-35 1181.69,-35 1181.69,-35"/>
<polygon fill="black" stroke="black" points="1181.69,-38.5 1191.69,-35 1181.69,-31.5 1181.69,-38.5"/>
</g>
<!-- 1610506746272 -->
<g id="node6" class="node">
<title>1610506746272</title>
<polygon fill="none" stroke="black" points="1477,-0.5 1477,-69.5 1698,-69.5 1698,-0.5 1477,-0.5"/>
<text text-anchor="middle" x="1531.5" y="-54.3" font-family="Times New Roman,serif" font-size="14.00">flatten</text>
<polyline fill="none" stroke="black" points="1586,-46.5 1586,-69.5 "/>
<text text-anchor="middle" x="1642" y="-54.3" font-family="Times New Roman,serif" font-size="14.00">Flatten</text>
<polyline fill="none" stroke="black" points="1477,-46.5 1698,-46.5 "/>
<text text-anchor="middle" x="1530.5" y="-31.3" font-family="Times New Roman,serif" font-size="14.00">input:</text>
<polyline fill="none" stroke="black" points="1584,-23.5 1584,-46.5 "/>
<text text-anchor="middle" x="1641" y="-31.3" font-family="Times New Roman,serif" font-size="14.00">output:</text>
<polyline fill="none" stroke="black" points="1477,-23.5 1698,-23.5 "/>
<text text-anchor="middle" x="1536" y="-8.3" font-family="Times New Roman,serif" font-size="14.00">(None, 54, 54, 64)</text>
<polyline fill="none" stroke="black" points="1595,-0.5 1595,-23.5 "/>
<text text-anchor="middle" x="1646.5" y="-8.3" font-family="Times New Roman,serif" font-size="14.00">(None, 186624)</text>
</g>
<!-- 1610506955024&#45;&gt;1610506746272 -->
<g id="edge5" class="edge">
<title>1610506955024&#45;&gt;1610506746272</title>
<path fill="none" stroke="black" d="M1441.29,-35C1441.29,-35 1466.68,-35 1466.68,-35"/>
<polygon fill="black" stroke="black" points="1466.68,-38.5 1476.68,-35 1466.68,-31.5 1466.68,-38.5"/>
</g>
<!-- 1610505497856 -->
<g id="node7" class="node">
<title>1610505497856</title>
<polygon fill="none" stroke="black" points="1734,-0.5 1734,-69.5 1920,-69.5 1920,-0.5 1734,-0.5"/>
<text text-anchor="middle" x="1779.5" y="-54.3" font-family="Times New Roman,serif" font-size="14.00">dense</text>
<polyline fill="none" stroke="black" points="1825,-46.5 1825,-69.5 "/>
<text text-anchor="middle" x="1872.5" y="-54.3" font-family="Times New Roman,serif" font-size="14.00">Dense</text>
<polyline fill="none" stroke="black" points="1734,-46.5 1920,-46.5 "/>
<text text-anchor="middle" x="1778.5" y="-31.3" font-family="Times New Roman,serif" font-size="14.00">input:</text>
<polyline fill="none" stroke="black" points="1823,-23.5 1823,-46.5 "/>
<text text-anchor="middle" x="1871.5" y="-31.3" font-family="Times New Roman,serif" font-size="14.00">output:</text>
<polyline fill="none" stroke="black" points="1734,-23.5 1920,-23.5 "/>
<text text-anchor="middle" x="1785.5" y="-8.3" font-family="Times New Roman,serif" font-size="14.00">(None, 186624)</text>
<polyline fill="none" stroke="black" points="1837,-0.5 1837,-23.5 "/>
<text text-anchor="middle" x="1878.5" y="-8.3" font-family="Times New Roman,serif" font-size="14.00">(None, 128)</text>
</g>
<!-- 1610506746272&#45;&gt;1610505497856 -->
<g id="edge6" class="edge">
<title>1610506746272&#45;&gt;1610505497856</title>
<path fill="none" stroke="black" d="M1698.14,-35C1698.14,-35 1723.69,-35 1723.69,-35"/>
<polygon fill="black" stroke="black" points="1723.69,-38.5 1733.69,-35 1723.69,-31.5 1723.69,-38.5"/>
</g>
<!-- 1610505452464 -->
<g id="node8" class="node">
<title>1610505452464</title>
<polygon fill="none" stroke="black" points="1956,-0.5 1956,-69.5 2115,-69.5 2115,-0.5 1956,-0.5"/>
<text text-anchor="middle" x="1998.5" y="-54.3" font-family="Times New Roman,serif" font-size="14.00">dense_1</text>
<polyline fill="none" stroke="black" points="2041,-46.5 2041,-69.5 "/>
<text text-anchor="middle" x="2078" y="-54.3" font-family="Times New Roman,serif" font-size="14.00">Dense</text>
<polyline fill="none" stroke="black" points="1956,-46.5 2115,-46.5 "/>
<text text-anchor="middle" x="1994" y="-31.3" font-family="Times New Roman,serif" font-size="14.00">input:</text>
<polyline fill="none" stroke="black" points="2032,-23.5 2032,-46.5 "/>
<text text-anchor="middle" x="2073.5" y="-31.3" font-family="Times New Roman,serif" font-size="14.00">output:</text>
<polyline fill="none" stroke="black" points="1956,-23.5 2115,-23.5 "/>
<text text-anchor="middle" x="1997.5" y="-8.3" font-family="Times New Roman,serif" font-size="14.00">(None, 128)</text>
<polyline fill="none" stroke="black" points="2039,-0.5 2039,-23.5 "/>
<text text-anchor="middle" x="2077" y="-8.3" font-family="Times New Roman,serif" font-size="14.00">(None, 22)</text>
</g>
<!-- 1610505497856&#45;&gt;1610505452464 -->
<g id="edge7" class="edge">
<title>1610505497856&#45;&gt;1610505452464</title>
<path fill="none" stroke="black" d="M1920.27,-35C1920.27,-35 1945.68,-35 1945.68,-35"/>
<polygon fill="black" stroke="black" points="1945.68,-38.5 1955.68,-35 1945.68,-31.5 1945.68,-38.5"/>
</g>
</g>
</svg>
